<svg width="24" height="24" viewBox="0 0 24 24" fill="none" xmlns="http://www.w3.org/2000/svg">
<mask id="mask0_22_5605" style="mask-type:alpha" maskUnits="userSpaceOnUse" x="0" y="0" width="24" height="24">
<rect width="24" height="24" rx="6" fill="#C4C4C4"/>
</mask>
<g mask="url(#mask0_22_5605)">
<path d="M15.683 0H8.31577C1.59277 0 -0.000976562 1.59375 -0.000976562 8.31675V15.684C-0.000976562 22.407 1.59277 24.0007 8.31577 24.0007H15.683C22.406 24.0007 23.9998 22.407 23.9998 15.684V8.31675C23.9998 1.59375 22.3903 0 15.683 0ZM19.3745 17.121H17.6323C16.9723 17.121 16.769 16.5975 15.5818 15.3945C14.5505 14.3947 14.0938 14.262 13.8395 14.262C13.4803 14.262 13.3783 14.3633 13.3783 14.856V16.4303C13.3783 16.8525 13.2455 17.106 12.128 17.106C10.28 17.106 8.22952 15.9885 6.79177 13.9065C4.62352 10.8555 4.03027 8.57025 4.03027 8.09775C4.03027 7.8435 4.13152 7.60575 4.61977 7.60575H6.36577C6.80752 7.60575 6.97552 7.809 7.14727 8.2815C8.01052 10.7738 9.44827 12.957 10.0415 12.957C10.2605 12.957 10.3618 12.8558 10.3618 12.297V9.723C10.295 8.53575 9.67027 8.43375 9.67027 8.01225C9.67027 7.809 9.83827 7.60575 10.1075 7.60575H12.8533C13.2245 7.60575 13.361 7.809 13.361 8.24625V11.7188C13.361 12.0938 13.529 12.2265 13.6303 12.2265C13.8493 12.2265 14.0368 12.0938 14.4425 11.6873C15.6965 10.281 16.595 8.11275 16.595 8.11275C16.712 7.8585 16.9153 7.62075 17.357 7.62075H19.103C19.6265 7.62075 19.7435 7.89 19.6265 8.265C19.4075 9.2805 17.2708 12.2963 17.2708 12.2963C17.087 12.6007 17.0165 12.7335 17.2708 13.0732C17.4583 13.3275 18.068 13.8548 18.4738 14.3273C19.22 15.1748 19.7938 15.8857 19.9468 16.3778C20.1185 16.866 19.865 17.1203 19.3723 17.1203L19.3745 17.121Z" fill="black"/>
</g>
</svg>
