<svg width="24" height="24" viewBox="0 0 24 24" fill="none" xmlns="http://www.w3.org/2000/svg">
<path d="M19.8319 5.66164C20.2907 5.04812 20.5215 4.33582 20.5215 3.53222C20.5215 3.06494 20.437 2.63048 20.2646 2.23225C20.0833 1.81356 19.7621 1.46526 19.3215 1.18253C18.8644 0.889139 18.3098 0.75 17.6719 0.75C17.4108 0.75 17.1471 0.777312 16.8809 0.831411C16.6128 0.885892 16.3555 0.96777 16.1094 1.07717C15.8733 1.18213 15.641 1.29828 15.4125 1.42558C15.1794 1.55549 14.9542 1.70425 14.737 1.87164C14.5257 2.03454 14.3215 2.20125 14.1245 2.37178C13.9234 2.54585 13.7301 2.73469 13.5447 2.93816C13.3644 3.13602 13.1947 3.32679 13.0356 3.51045C12.8747 3.69627 12.7175 3.88937 12.5642 4.08972C12.4126 4.2878 12.2784 4.46827 12.1619 4.631C12.1187 4.69142 12.0764 4.75282 12.0352 4.81517C11.7915 4.45851 11.5327 4.11274 11.259 3.77785C10.8999 3.33849 10.466 2.87947 9.95867 2.4008C9.43939 1.91087 8.86695 1.51407 8.2417 1.21155C7.61089 0.906337 6.97946 0.75 6.34961 0.75C5.71168 0.75 5.15713 0.889139 4.69994 1.18253C4.25936 1.46526 3.93823 1.81356 3.75691 2.23225C3.58447 2.63048 3.5 3.06494 3.5 3.53222C3.5 4.34019 3.73801 5.05954 4.20932 5.68347H2.375C1.92307 5.68347 1.53249 5.84372 1.21928 6.16196C0.906264 6.48 0.75 6.87495 0.75 7.33056V11.5V11.75H1H2.14648V20.6029C2.14648 21.0466 2.30447 21.4358 2.61344 21.7582C2.92609 22.0845 3.31737 22.25 3.77148 22.25H20.25C20.7041 22.25 21.0954 22.0845 21.408 21.7582C21.717 21.4358 21.875 21.0466 21.875 20.6029V11.75H23H23.25V11.5V7.30873C23.25 7.20086 23.2367 7.09128 23.2116 6.98049C23.1882 6.87745 23.1604 6.78036 23.128 6.68967C23.0917 6.58844 23.0422 6.49277 22.9803 6.40286C22.9216 6.31768 22.855 6.23738 22.7807 6.16196C22.7065 6.08653 22.6274 6.01873 22.5433 5.95896C22.456 5.89686 22.3612 5.84452 22.2596 5.80149C22.1626 5.76043 22.0647 5.72718 21.9658 5.70208C21.8574 5.67453 21.7434 5.66164 21.625 5.66164H19.8319ZM8.53521 3.65283C9.2 4.2492 9.80136 4.91865 10.3393 5.66164H8.49805C7.66821 5.66164 6.93476 5.45499 6.29027 5.04571C5.66479 4.64851 5.375 4.14106 5.375 3.5104C5.375 3.20334 5.45461 3.01102 5.57536 2.89074C5.69798 2.76859 5.90194 2.68182 6.23066 2.66872L6.26672 2.66728L6.3009 2.65571C6.31949 2.64941 6.3354 2.64709 6.34961 2.64709C7.04136 2.64709 7.76863 2.96515 8.53521 3.65283ZM17.6719 2.64709C18.0461 2.64709 18.2801 2.73419 18.4204 2.86422C18.5571 2.99093 18.6465 3.19745 18.6465 3.53222C18.6465 3.96566 18.5043 4.33961 18.2154 4.66511C17.9156 5.00278 17.5402 5.25262 17.0837 5.41398C16.618 5.57855 16.12 5.66164 15.5879 5.66164H13.7447C13.932 5.40077 14.1271 5.14803 14.3301 4.90341C14.6314 4.54033 14.9721 4.17611 15.3528 3.81084C15.7237 3.4549 16.1161 3.17117 16.5297 2.95758C16.939 2.74624 17.3188 2.64709 17.6719 2.64709ZM21.375 9.85291H12.9375V7.55873H21.375V9.85291ZM2.625 7.55873H11.0625V9.85291H2.625V7.55873ZM4.02148 11.75H11.0625V20.3529H4.02148V11.75ZM20 20.3529H12.9375V11.75H20V20.3529Z" fill="black" stroke="black" stroke-width="0.5"/>
</svg>
