<svg width="24" height="24" viewBox="0 0 24 24" fill="none" xmlns="http://www.w3.org/2000/svg">
<path d="M20 16V8.5C20 7.672 19.359 7 18.52 7C18 7 17 7.3 17 8.5V5.5C17 4.672 16.359 4 15.52 4C15.013 4 14 4.3 14 5.5V3.5C14 2.672 13.359 2 12.52 2C11.68 2 11 2.672 11 3.5V5.5C11 4.3 10.007 4 9.5 4C8.66 4 8 4.691 8 5.52V14" stroke="black" stroke-width="2" stroke-linecap="round" stroke-linejoin="round"/>
<path d="M11 5.5V11" stroke="black" stroke-width="2" stroke-linecap="round" stroke-linejoin="round"/>
<path d="M14 5.5V11" stroke="black" stroke-width="2" stroke-linecap="round" stroke-linejoin="round"/>
<path d="M17 5.5V11" stroke="black" stroke-width="2" stroke-linecap="round" stroke-linejoin="round"/>
<path d="M20 15.9999C20 19.9999 16.866 21.9999 13 21.9999C9.13397 21.9999 7.80397 20.9999 4.80397 15.9999L3.23297 13.3949C2.69697 12.5269 3.12597 11.4009 4.11397 11.0809C4.43703 10.9754 4.78474 10.9718 5.10994 11.0705C5.43515 11.1692 5.72213 11.3656 5.93197 11.6329L7.99997 14.0329" stroke="black" stroke-width="2" stroke-linecap="round" stroke-linejoin="round"/>
</svg>
