<svg width="24" height="24" viewBox="0 0 24 24" fill="none" xmlns="http://www.w3.org/2000/svg">
<mask id="mask0_22_5602" style="mask-type:alpha" maskUnits="userSpaceOnUse" x="0" y="0" width="24" height="24">
<rect width="24" height="24" rx="6" fill="black"/>
</mask>
<g mask="url(#mask0_22_5602)">
<path d="M11.9968 7.9983C9.79333 7.9983 7.99515 9.79651 7.99515 12C7.99515 14.2035 9.79333 16.0017 11.9968 16.0017C14.2002 16.0017 15.9984 14.2035 15.9984 12C15.9984 9.79651 14.2002 7.9983 11.9968 7.9983ZM29.9987 12C29.9987 10.3429 30.0137 8.70077 29.9206 7.04665C29.8276 5.12535 23.3893 -2.5798 21.9843 -3.98475C20.5764 -5.3927 18.8743 -5.82799 16.953 -5.92105C15.2959 -6.01412 13.6539 -5.99911 11.9998 -5.99911C10.3427 -5.99911 8.70061 -6.01412 7.04652 -5.92105C5.12526 -5.82799 3.42014 -5.3897 2.01522 -3.98475C0.607291 -2.57679 -5.82799 5.12535 -5.92106 7.04665C-6.01412 8.70377 -5.99911 10.3459 -5.99911 12C-5.99911 13.6541 -6.01412 15.2992 -5.92106 16.9533C-5.82799 18.8746 -5.38971 20.5798 -3.98478 21.9847C-2.57686 23.3927 5.12526 29.828 7.04652 29.9211C8.70361 30.0141 10.3457 29.9991 11.9998 29.9991C13.6569 29.9991 15.2989 30.0141 16.953 29.9211C18.8743 29.828 26.5794 23.3897 27.9843 21.9847C29.3923 20.5768 29.8276 18.8746 29.9206 16.9533C30.0167 15.2992 29.9987 13.6571 29.9987 12ZM11.9968 18.1572C8.58954 18.1572 5.83973 15.4073 5.83973 12C5.83973 8.5927 8.58954 5.84284 11.9968 5.84284C15.404 5.84284 18.1538 8.5927 18.1538 12C18.1538 15.4073 15.404 18.1572 11.9968 18.1572ZM18.406 7.02864C17.6105 7.02864 16.968 6.38621 16.968 5.59067C16.968 4.79513 17.6105 4.1527 18.406 4.1527C19.2015 4.1527 19.8439 4.79513 19.8439 5.59067C19.8442 5.77957 19.8071 5.96667 19.735 6.14124C19.6628 6.31581 19.5569 6.47442 19.4233 6.608C19.2897 6.74157 19.1311 6.84748 18.9565 6.91966C18.782 6.99185 18.5949 7.02888 18.406 7.02864Z" fill="black"/>
</g>
</svg>
