<svg width="24" height="24" viewBox="0 0 24 24" fill="none" xmlns="http://www.w3.org/2000/svg">
<path d="M15.3333 2L16.2235 5.38349C16.702 7.2021 18.0054 8.69117 19.7447 9.40618L22 10.3333L19.7447 11.2605C18.0054 11.9755 16.702 13.4646 16.2235 15.2832L15.3333 18.6667L14.4431 15.2832C13.9646 13.4646 12.6612 11.9755 10.9219 11.2605L8.66663 10.3333L10.9219 9.40618C12.6612 8.69117 13.9646 7.2021 14.4431 5.38349L15.3333 2Z" fill="black"/>
<path d="M5.33333 2L5.59379 2.89094C5.94893 4.10576 6.85806 5.08083 8.04509 5.52002L8.66667 5.75L8.04509 5.97998C6.85806 6.41917 5.94893 7.39424 5.59379 8.60906L5.33333 9.5L5.07288 8.60906C4.71774 7.39424 3.8086 6.41917 2.62158 5.97998L2 5.75L2.62158 5.52002C3.8086 5.08083 4.71774 4.10576 5.07288 2.89094L5.33333 2Z" fill="black"/>
<path d="M8.66671 14.5L8.92716 15.3909C9.2823 16.6058 10.1914 17.5808 11.3785 18.02L12 18.25L11.3785 18.48C10.1914 18.9192 9.2823 19.8942 8.92716 21.1091L8.66671 22L8.40625 21.1091C8.05111 19.8942 7.14198 18.9192 5.95495 18.48L5.33337 18.25L5.95495 18.02C7.14198 17.5808 8.05111 16.6058 8.40625 15.3909L8.66671 14.5Z" fill="black"/>
</svg>
