<svg width="24" height="24" viewBox="0 0 24 24" xmlns="http://www.w3.org/2000/svg">
<path d="M12 1C6.486 1 2 5.486 2 11C2 16.514 6.486 21 12 21C13.466 21 14.961 20.629 16.442 19.896L15.557 18.103C14.353 18.698 13.156 19 12 19C7.589 19 4 15.411 4 11C4 6.589 7.589 3 12 3C16.411 3 20 6.589 20 11V12C20 12.692 19.687 14 18.5 14C17.104 14 17.006 12.181 17 12V7H15V7.025C14.1393 6.36395 13.0853 6.00383 12 6C9.243 6 7 8.243 7 11C7 13.757 9.243 16 12 16C13.45 16 14.748 15.369 15.662 14.379C16.186 15.269 17.07 16 18.5 16C20.773 16 22 13.939 22 12V11C22 5.486 17.514 1 12 1ZM12 14C10.346 14 9 12.654 9 11C9 9.346 10.346 8 12 8C13.654 8 15 9.346 15 11C15 12.654 13.654 14 12 14Z"/>
</svg>
